<svg xmlns="http://www.w3.org/2000/svg" xmlns:osb="http://www.openswatchbook.org/uri/2009/osb" xmlns:svg="http://www.w3.org/2000/svg" id="svg7384" width="16" height="16" version="1.1"><metadata id="metadata90"/><title id="title9167">Gnome Symbolic Icon Theme</title><defs id="defs7386"><linearGradient id="linearGradient7212" osb:paint="solid"><stop id="stop7214" offset="0" style="stop-color:#000;stop-opacity:1"/></linearGradient></defs><g id="layer9" transform="translate(-263.00021,104.99999)" style="display:inline"><path id="rect14819" d="m 267.50215,-100.98828 c -0.82943,0 -1.49609,0.66666 -1.49609,1.49609 l 0,6.00586 c 0,0.82943 0.66666,1.49805 1.49609,1.49805 0.82944,0 1.49805,-0.66862 1.49805,-1.49805 l 0,-2.53515 4,0 0,2.5332 c 0,0.83099 0.66901,1.5 1.5,1.5 0.83099,0 1.5,-0.66901 1.5,-1.5 l 0,-6 c 0,-0.831 -0.66901,-1.5 -1.5,-1.5 -0.83099,0 -1.5,0.669 -1.5,1.5 l 0,2.48828 -4,0 0,-2.49219 c 0,-0.82943 -0.66861,-1.49609 -1.49805,-1.49609 z" style="color:#000;clip-rule:nonzero;display:inline;overflow:visible;visibility:visible;opacity:1;isolation:auto;mix-blend-mode:normal;color-interpolation:sRGB;color-interpolation-filters:linearRGB;solid-color:#000;solid-opacity:1;fill:#bebebe;fill-opacity:1;fill-rule:nonzero;stroke:none;stroke-width:1;stroke-linecap:butt;stroke-linejoin:miter;stroke-miterlimit:4;stroke-dasharray:none;stroke-dashoffset:0;stroke-opacity:1;marker:none;marker-start:none;marker-mid:none;marker-end:none;paint-order:normal;color-rendering:auto;image-rendering:auto;shape-rendering:auto;text-rendering:auto;enable-background:accumulate"/><path id="rect14823" d="m 264.50583,-98.98917 c -0.27689,-0.008 -0.5,0.223 -0.5,0.5 l 0,1.5 -1,0 0,1 1,0 0,1.4668 c 0,0.277 0.2231,0.508 0.5,0.5 l 0.5,-0.0137 0,-4.95117 z" style="color:#000;clip-rule:nonzero;display:inline;overflow:visible;visibility:visible;opacity:1;isolation:auto;mix-blend-mode:normal;color-interpolation:sRGB;color-interpolation-filters:linearRGB;solid-color:#000;solid-opacity:1;fill:#bebebe;fill-opacity:1;fill-rule:nonzero;stroke:none;stroke-width:1;stroke-linecap:butt;stroke-linejoin:miter;stroke-miterlimit:4;stroke-dasharray:none;stroke-dashoffset:0;stroke-opacity:1;marker:none;marker-start:none;marker-mid:none;marker-end:none;paint-order:normal;color-rendering:auto;image-rendering:auto;shape-rendering:auto;text-rendering:auto;enable-background:accumulate"/><path id="path14833" d="m 277.50023,-98.98917 c 0.27689,-0.008 0.5,0.223 0.5,0.5 l 0,1.5 1,0 0,1 -1,0 0,1.4668 c 0,0.277 -0.2231,0.508 -0.5,0.5 l -0.5,-0.0137 0,-4.95117 z" style="color:#000;clip-rule:nonzero;display:inline;overflow:visible;visibility:visible;opacity:1;isolation:auto;mix-blend-mode:normal;color-interpolation:sRGB;color-interpolation-filters:linearRGB;solid-color:#000;solid-opacity:1;fill:#bebebe;fill-opacity:1;fill-rule:nonzero;stroke:none;stroke-width:1;stroke-linecap:butt;stroke-linejoin:miter;stroke-miterlimit:4;stroke-dasharray:none;stroke-dashoffset:0;stroke-opacity:1;marker:none;marker-start:none;marker-mid:none;marker-end:none;paint-order:normal;color-rendering:auto;image-rendering:auto;shape-rendering:auto;text-rendering:auto;enable-background:accumulate"/></g></svg>